<svg viewBox="-150 22 512 600" width="512" height="512"
  xmlns="http://www.w3.org/2000/svg">
  <path fill="#000000" d="m172.796875 213.964844c-21.445313 0-38.890625 17.445312-38.890625 38.890625v204.417969c0 19.148437-15.582031 34.726562-34.730469 34.726562-19.148437 0-34.726562-15.578125-34.726562-34.726562v-8.375h6.183593c10.300782 0 18.632813-8.066407 18.964844-18.359376l1.503906-46.332031c10.164063-2.246093 17.796876-11.3125 17.796876-22.144531v-154.667969c0-6.5625-4.054688-12.1875-9.785157-14.523437l-2.734375-17.53125c-.9375-5.96875-6-10.300782-12.042968-10.300782h-4.628907v-96.710937c0-.679687-.070312-1.359375-.207031-2.027344l-1.378906-6.640625c-.277344-1.335937.050781-2.699218.902344-3.746094 4.570312-5.617187 7.089843-12.707031 7.089843-19.960937 0-16.972656-13.539062-35.953125-31.664062-35.953125-18.121094 0-31.660157 18.980469-31.660157 35.953125 0 7.253906 2.515626 14.34375 7.089844 19.960937.847656 1.046876 1.175782 2.410157.898438 3.75l-1.375 6.636719c-.140625.667969-.207032 1.347657-.207032 2.027344v96.710937h-4.632812c-6.039062 0-11.101562 4.332032-12.042969 10.3125l-2.730469 17.519532c-5.734374 2.335937-9.789062 7.960937-9.789062 14.523437v154.667969c0 10.832031 7.632812 19.898438 17.796875 22.144531l1.503906 46.332031c.332031 10.292969 8.664063 18.359376 18.964844 18.359376h6.183594v8.375c0 30.175781 24.550781 54.726562 54.726562 54.726562 30.179688 0 54.730469-24.550781 54.730469-54.726562v-204.417969c0-10.417969 8.472656-18.890625 18.890625-18.890625s18.890625 8.472656 18.890625 18.890625v143.484375c0 5.523437 4.480469 10 10 10 5.523438 0 10-4.476563 10-10v-143.484375c0-21.445313-17.445312-38.890625-38.890625-38.890625zm 179.714844c-1.484375 "/>
  <path fill="#ffd15e" stroke="#ffd15e" stroke-width="22" d="m40.570312 61.695312-1.375 6.632813v106.710937h30.511719v-106.710937l-1.375-6.632813c-.886719-4.269531.183594-8.710937 2.933594-12.089843 3.03125-3.726563 4.847656-8.472657 4.847656-13.652344 0-11.960937-9.699219-25.953125-21.664062-25.953125-11.960938 0-21.660157 13.992188-21.660157 25.953125 0 5.179687 1.816407 9.925781 4.847657 13.652344 2.75 3.378906 3.820312 7.820312 2.933593 12.089843zm0 0"/>
  <path fill="#333333" stroke="#333333" stroke-width="22" d="m93.21875 201.710938h-77.535156c-3.136719 0-5.679688 2.542968-5.679688 5.679687v154.671875c0 7.007812 5.679688 12.691406 12.6875 12.691406h63.519532c7.007812 0 12.6875-5.683594 12.6875-12.691406v-154.667969c0-3.140625-2.542969-5.683593-5.679688-5.683593zm0 0"/>
  <path fill="#333333" stroke="#333333" stroke-width="22" d="m86.5 176.890625c-.167969-1.066406-1.085938-1.851563-2.164062-1.851563h-59.769532c-1.078125 0-1.996094.785157-2.164062 1.851563l-3.871094 24.820313h71.839844zm0 0"/>
  <path fill="#333333" stroke="#333333" stroke-width="22" d="m29.296875 430.214844c.15625 4.839844 4.125 8.679687 8.96875 8.679687h32.371094c4.839843 0 8.8125-3.839843 8.96875-8.679687l1.796875-55.460938h-53.90625zm0 0"/>
  <path fill="#000000" d="m39.789062 242.703125c-5.523437 0-10 4.476563-10 10v47.296875c0 5.523438 4.476563 10 10 10 5.519532 0 10-4.476562 10-10v-47.296875c0-5.523437-4.476562-10-10-10zm0 0"/>
  <path fill="#000000" d="m39.789062 330.011719c-5.523437 0-10 4.492187-10 10.015625 0 5.523437 4.476563 10 10 10 5.519532 0 10-4.480469 10-10v-.027344c0-5.523438-4.476562-9.988281-10-9.988281zm0 0"/>
</svg>